<svg xmlns="http://www.w3.org/2000/svg" xmlns:xlink="http://www.w3.org/1999/xlink" viewBox="0 0 100 125" version="1.1" x="0px" y="0px"><title>tool-6 copy 3</title><desc>Created with Sketch.</desc><g stroke="none" stroke-width="1" fill="none" fill-rule="evenodd"><path d="M67.6571488,52.4650722 C66.2852111,55.8847383 61.7555968,56.6279896 59.285221,53.8947431 L40.1438043,32.7249586 C37.8128422,30.1471111 38.7363472,26.0356974 41.945527,24.7019299 C48.957061,21.7866446 57.1744793,22.1658181 62.9304017,27.5905754 C66.1182698,30.5946602 72.6351958,40.0535757 67.6571488,52.4650722 M39.9422316,49.7042979 C39.9422316,51.8310443 38.2177637,53.5555292 36.0910383,53.5555292 C33.9643128,53.5555292 32.2398449,51.8310443 32.2398449,49.7042979 C32.2398449,47.5775515 33.9643128,45.8530665 36.0910383,45.8530665 C38.2177637,45.8530665 39.9422316,47.5775515 39.9422316,49.7042979 M72.5810287,84.7294577 L71.7907215,76.5750059 C71.8013774,68.2296353 73.3446963,59.2964125 76.3789429,50.0204239 C77.4729411,46.6726853 77.8938463,43.1677717 77.6274506,39.6042505 C76.6666502,26.7034691 66.2363719,16.0830571 53.3650213,14.9011366 C40.2476986,13.7014563 28.300741,21.9908833 24.8864365,34.6341463 C24.8846605,34.6394743 17.8233994,55.943346 17.8233994,55.943346 C17.2257851,57.7459744 17.5205963,59.6631542 18.6323542,61.2020483 C19.7441122,62.7427184 21.4703561,63.6253848 23.3697572,63.6253848 L23.9522757,63.6253848 L23.9522757,68.6638646 C23.9522757,76.4879825 30.3173562,82.8531257 38.1405089,82.8531257 L41.4162876,82.8531257 L41.4162876,90.5484845 C22.6673606,86.5844779 8.55194222,69.9123846 8.55194222,50 C8.55194222,27.1456903 27.1454718,8.55197727 49.999556,8.55197727 C72.8536402,8.55197727 91.4480578,27.1456903 91.4480578,50 C91.4480578,64.528475 83.9277081,77.3262491 72.5810287,84.7294577 M49.999556,91.4480227 C48.2955117,91.4480227 46.618995,91.3325835 44.9682299,91.1318968 L44.9682299,81.0664812 C44.9682299,80.5896282 44.776425,80.1331991 44.4354385,79.7993133 C44.096228,79.4654274 43.6344755,79.2940445 43.1576273,79.2904925 L38.1405089,79.3011485 C32.2762523,79.3011485 27.5042179,74.529067 27.5042179,68.6638646 L27.5042179,61.8493962 C27.5042179,60.8681624 26.7085829,60.0734075 25.7282468,60.0734075 L23.3697572,60.0734075 C22.6247373,60.0734075 21.9480923,59.7270897 21.5120914,59.1223656 C21.0760905,58.5194175 20.9606524,57.7672863 21.1950806,57.0604428 C21.1950806,57.0604428 28.2643336,35.7512432 28.2856452,35.6739877 C31.2071177,24.6371063 41.6151964,17.3839687 53.0409065,18.438906 C64.2046609,19.4636514 73.2523458,28.6765925 74.0861642,39.8679848 C74.3170404,42.967085 73.9529664,46.0120175 73.0019338,48.9166469 C69.8415932,58.5806891 68.2387793,67.9152853 68.2387793,76.6593654 C68.2387793,76.717085 68.2414433,76.7739166 68.2476592,76.8316363 L69.2057956,86.711461 C63.4596411,89.7297537 56.9276193,91.4480227 49.999556,91.4480227 M49.999556,5 C25.1874636,5 5,25.1867748 5,50 C5,72.3561449 21.3904374,90.9489699 42.7828974,94.4139238 C42.8281847,94.4245797 42.8743599,94.4307956 42.9205352,94.4378996 C45.2275216,94.8046413 47.5913392,95 49.999556,95 C57.9097313,95 65.3448344,92.9407412 71.8111452,89.3425882 C71.9239194,89.2919725 72.0295897,89.2315889 72.128156,89.1596614 C85.7693902,81.4207909 95,66.7724367 95,50 C95,25.1867748 74.8125364,5 49.999556,5" fill="darkred"/></g></svg>