<svg xmlns="http://www.w3.org/2000/svg" xmlns:xlink="http://www.w3.org/1999/xlink" version="1.1" x="0px" y="0px" viewBox="0 0 100 125" enable-background="new 0 0 100 100" xml:space="preserve"><g><g><path d="M20.044,31.952c0-0.494,0.407-0.898,0.904-0.898h2.862c0.497,0,0.904,0.405,0.904,0.898v2.042    c0,0.493-0.318,1.151-0.706,1.458l-0.922,0.73c-0.389,0.308-1.025,0.308-1.414,0l-0.922-0.73    c-0.388-0.307-0.707-0.965-0.707-1.458V31.952z"/><path d="M18.35,40.301h-2.055c-0.497,0-0.904-0.404-0.904-0.898v-2.844c0-0.494,0.407-0.897,0.904-0.897h2.055    c0.497,0,1.158,0.316,1.468,0.702l0.735,0.916c0.31,0.386,0.31,1.019,0,1.404l-0.735,0.916    C19.508,39.984,18.847,40.301,18.35,40.301z"/><path d="M24.715,44.043c0,0.493-0.407,0.897-0.904,0.897h-2.862c-0.498,0-0.904-0.404-0.904-0.897v-2.042    c0-0.494,0.318-1.149,0.707-1.458l0.922-0.73c0.388-0.308,1.025-0.308,1.413,0l0.922,0.73c0.388,0.309,0.706,0.964,0.706,1.458    V44.043z"/><path d="M29.368,39.402c0,0.494-0.407,0.898-0.903,0.898H26.41c-0.498,0-1.158-0.317-1.468-0.703l-0.734-0.916    c-0.31-0.385-0.31-1.018,0-1.404l0.734-0.916c0.31-0.386,0.971-0.702,1.468-0.702h2.055c0.497,0,0.903,0.404,0.903,0.897V39.402z"/></g><g><ellipse cx="71.119" cy="37.791" rx="3.012" ry="2.994"/><ellipse cx="84.077" cy="37.791" rx="3.013" ry="2.994"/></g><g><ellipse cx="77.599" cy="31.334" rx="3.013" ry="2.994"/><ellipse cx="77.598" cy="44.249" rx="3.012" ry="2.994"/></g><path d="M37.184,39.785c-0.55,0-1-0.45-1-1V26.065c0-0.55,0.45-1,1-1h25.334c0.55,0,1,0.45,1,1v12.719c0,0.55-0.45,1-1,1H37.184z"/><circle fill="darkred" cx="50.017" cy="44.148" r="0.438"/><circle fill="darkred" cx="50.809" cy="45.312" r="0.438"/><circle fill="darkred" cx="50.017" cy="46.476" r="0.438"/><circle fill="darkred" cx="48.434" cy="44.148" r="0.438"/><circle fill="darkred" cx="48.433" cy="46.476" r="0.438"/><circle fill="darkred" cx="51.601" cy="46.476" r="0.438"/><circle fill="darkred" cx="46.85" cy="44.148" r="0.438"/><path fill="darkred" d="M31.648,31.857h0.833c0.552,0,1-0.448,1-1V27.94c0-0.552-0.448-1-1-1h-0.833c-0.552,0-1,0.448-1,1v2.917   C30.648,31.41,31.096,31.857,31.648,31.857z"/><circle fill="darkred" cx="22.379" cy="37.997" r="10.314"/><circle fill="darkred" cx="36" cy="49.634" r="4.874"/><circle fill="darkred" cx="51.601" cy="44.148" r="0.438"/><circle fill="darkred" cx="49.226" cy="45.312" r="0.438"/><circle fill="darkred" cx="64.174" cy="49.63" r="4.874"/><circle fill="darkred" cx="77.598" cy="37.791" r="10.314"/><path fill="darkred" d="M67.215,31.857h0.834c0.553,0,1-0.448,1-1V27.94c0-0.552-0.447-1-1-1h-0.834c-0.552,0-1,0.448-1,1v2.917   C66.215,31.409,66.663,31.857,67.215,31.857z"/><circle fill="darkred" cx="47.642" cy="45.312" r="0.438"/><circle fill="darkred" cx="50.017" cy="50.44" r="2.15"/><circle fill="darkred" cx="53.185" cy="44.148" r="0.438"/><circle fill="darkred" cx="52.393" cy="45.312" r="0.438"/><path d="M85.586,71.43c-1.818,0.452-3.481,0.635-4.981,0.635c-2.017,0-3.733-0.332-5.145-0.781   c0.841,2.018,3.875,7.651,11.032,5.931c7.402-1.78,7.448-8.753,7.252-11.582C92.774,67.701,90.57,70.189,85.586,71.43z"/><path d="M14.177,71.43c-4.651-1.157-6.88-3.401-7.946-5.377c-0.15,3.046,0.222,9.464,7.278,11.161   c7.267,1.747,10.285-4.091,11.07-6.023c-1.461,0.495-3.27,0.874-5.421,0.874C17.657,72.064,15.995,71.882,14.177,71.43z"/><path d="M85.404,70.701c6.11-1.52,7.754-4.949,8.189-6.909c-0.291-3.289-1.547-14.988-4.311-24.87   c-2.75-9.833-5.916-13.583-5.916-13.583s-0.292-0.333-0.917-0.542c0,0,0.097-0.596-0.042-0.708c-1.432-1.167-2.833-1.626-5.5-1.625   c-3.249,0.001-4.958,0.708-5.208,0.875s-0.25,1-0.25,1s-1.565,0.75-2.304,0.792c-0.155,0.009-2.051,0.016-4.921,0.021   c0.181,0.181,0.292,0.43,0.292,0.706v13.927c0,0.552-0.447,1-1,1H36.184c-0.552,0-1-0.448-1-1V25.857   c0-0.276,0.112-0.526,0.292-0.707c-2.697-0.005-4.473-0.012-4.622-0.02c-0.738-0.042-2.303-0.792-2.303-0.792s0-0.833-0.25-1   s-1.959-0.874-5.208-0.875c-2.667-0.001-4.068,0.458-5.5,1.625c-0.138,0.112-0.042,0.708-0.042,0.708   c-0.625,0.208-0.917,0.542-0.917,0.542s-3.167,3.75-5.917,13.583C7.667,49.83,6.454,62.95,6.346,64.532   c0.656,1.99,2.559,4.813,8.011,6.169c4.585,1.144,8.16,0.466,10.559-0.458c0.478-1.43,2.339-7.01,3.134-9.613   c0.705-2.307,1.798-2.838,2.267-2.961c1.518,1.245,3.459,1.994,5.576,1.994c2.139,0,4.098-0.765,5.623-2.033H58.45   c1.524,1.267,3.481,2.029,5.618,2.029c2.119,0,4.063-0.75,5.582-1.999c0.448,0.106,1.577,0.607,2.3,2.97   c0.819,2.68,2.764,8.505,3.17,9.721C77.515,71.218,80.997,71.8,85.404,70.701z M30.648,27.94c0-0.552,0.448-1,1-1h0.833   c0.552,0,1,0.448,1,1v2.917c0,0.552-0.448,1-1,1h-0.833c-0.552,0-1-0.448-1-1V27.94z M22.379,48.312   c-5.696,0-10.314-4.618-10.314-10.314c0-5.697,4.618-10.314,10.314-10.314c5.697,0,10.314,4.618,10.314,10.314   C32.694,43.694,28.076,48.312,22.379,48.312z M36,54.508c-2.691,0-4.874-2.182-4.874-4.874S33.309,44.76,36,44.76   c2.692,0,4.874,2.182,4.874,4.874S38.692,54.508,36,54.508z M51.601,43.711c0.242,0,0.438,0.196,0.438,0.438   s-0.195,0.438-0.438,0.438s-0.438-0.196-0.438-0.438S51.358,43.711,51.601,43.711z M52.038,46.476c0,0.242-0.195,0.438-0.438,0.438   s-0.438-0.196-0.438-0.438s0.195-0.438,0.438-0.438S52.038,46.234,52.038,46.476z M50.809,44.875c0.243,0,0.438,0.196,0.438,0.438   c0,0.242-0.195,0.438-0.438,0.438c-0.242,0-0.438-0.195-0.438-0.438C50.372,45.071,50.567,44.875,50.809,44.875z M50.454,46.476   c0,0.242-0.195,0.438-0.438,0.438s-0.438-0.196-0.438-0.438s0.195-0.438,0.438-0.438S50.454,46.234,50.454,46.476z M50.017,43.711   c0.242,0,0.438,0.196,0.438,0.438s-0.195,0.438-0.438,0.438s-0.438-0.196-0.438-0.438S49.775,43.711,50.017,43.711z M49.226,44.875   c0.242,0,0.438,0.196,0.438,0.438c0,0.242-0.195,0.438-0.438,0.438s-0.438-0.195-0.438-0.438   C48.788,45.071,48.983,44.875,49.226,44.875z M48.871,46.476c0,0.242-0.196,0.438-0.438,0.438s-0.438-0.196-0.438-0.438   s0.196-0.438,0.438-0.438S48.871,46.234,48.871,46.476z M48.434,43.711c0.242,0,0.438,0.196,0.438,0.438s-0.195,0.438-0.438,0.438   s-0.438-0.196-0.438-0.438S48.191,43.711,48.434,43.711z M46.85,44.586c-0.242,0-0.438-0.196-0.438-0.438s0.196-0.438,0.438-0.438   s0.438,0.196,0.438,0.438S47.092,44.586,46.85,44.586z M47.205,45.312c0-0.241,0.196-0.438,0.438-0.438s0.438,0.196,0.438,0.438   c0,0.242-0.196,0.438-0.438,0.438S47.205,45.554,47.205,45.312z M50.017,52.591c-1.188,0-2.15-0.963-2.15-2.15   s0.962-2.15,2.15-2.15c1.188,0,2.151,0.963,2.151,2.15S51.205,52.591,50.017,52.591z M52.393,45.75   c-0.242,0-0.438-0.195-0.438-0.438c0-0.241,0.195-0.438,0.438-0.438s0.438,0.196,0.438,0.438   C52.83,45.554,52.635,45.75,52.393,45.75z M53.185,44.586c-0.242,0-0.438-0.196-0.438-0.438s0.195-0.438,0.438-0.438   s0.438,0.196,0.438,0.438S53.427,44.586,53.185,44.586z M66.215,27.94c0-0.552,0.448-1,1-1h0.834c0.553,0,1,0.448,1,1v2.917   c0,0.552-0.447,1-1,1h-0.834c-0.552,0-1-0.448-1-1V27.94z M64.174,54.504c-2.691,0-4.873-2.182-4.873-4.874   s2.182-4.874,4.873-4.874c2.692,0,4.875,2.182,4.875,4.874S66.866,54.504,64.174,54.504z M67.283,37.791   c0-5.696,4.618-10.314,10.314-10.314c5.697,0,10.314,4.618,10.314,10.314c0,5.697-4.617,10.314-10.314,10.314   C71.901,48.105,67.283,43.488,67.283,37.791z"/></g></svg>