<svg xmlns="http://www.w3.org/2000/svg" xmlns:xlink="http://www.w3.org/1999/xlink" version="1.1" x="0px" y="0px" viewBox="0 0 128 160" style="enable-background:new 0 0 128 128;" xml:space="preserve"><g><path fill="darkred" d="M115.106,32.498L65.728,3.989c-1.07-0.617-2.387-0.617-3.456,0l-16.46,9.502c-1.069,0.618-1.729,1.759-1.729,2.994v13.02   l-11.274-6.51c-1.069-0.618-2.386-0.617-3.456,0l-16.46,9.502c-1.069,0.617-1.728,1.758-1.728,2.993v57.018   c0,1.234,0.658,2.376,1.728,2.993l49.379,28.509c0.534,0.309,1.132,0.463,1.728,0.463c0.598,0,1.193-0.154,1.729-0.463   l16.459-9.503c1.07-0.617,1.729-1.759,1.729-2.993v-13.02l11.275,6.51c1.069,0.617,2.387,0.617,3.456,0l16.46-9.503   c1.069-0.617,1.729-1.758,1.729-2.993l-0.001-57.018C116.834,34.256,116.175,33.116,115.106,32.498z M110.72,35.491l-13.802,7.968   L83.357,35.63l-0.119-0.208l13.68-7.898L110.72,35.491z M94.26,25.988l-12.347,7.128L75.038,21.15l5.42-3.13L94.26,25.988z    M82.054,38.699l-13.149,7.592l-1.936-1.118l-9.384-16.252l14.156-8.173L82.054,38.699z M63.999,8.518L77.8,16.485l-4.086,2.359   l-0.332-0.576c-0.176-0.306-0.466-0.53-0.807-0.621c-0.34-0.092-0.704-0.044-1.01,0.132l-9.563,5.521l-11.805-6.815L63.999,8.518z    M29.751,99.709L15.95,91.741V75.805l13.801,7.968V99.709z M29.751,80.703L15.95,72.735V56.8l13.801,7.967V80.703z M29.751,61.697   L15.95,53.73V37.793l13.801,7.968V61.697z M17.28,35.491l13.801-7.967l13.8,7.968L31.08,43.459L17.28,35.491z M46.21,109.212   l-13.801-7.968V85.308l13.801,7.969V109.212z M46.21,90.206l-13.801-7.968V66.302l13.801,7.969V90.206z M46.21,71.2l-13.801-7.968   V47.296l13.801,7.969V71.2z M33.739,44.994l13.801-7.967l13.801,7.968L47.54,52.962L33.739,44.994z M62.67,118.715l-13.801-7.968   V94.812l13.801,7.968V118.715z M62.67,99.71l-13.801-7.969V75.805l13.801,7.968V99.71z M62.67,80.703l-13.801-7.968V56.799   l13.801,7.968V80.703z M50.198,54.497l13.801-7.968L77.8,54.498l-13.801,7.968L50.198,54.497z M79.13,110.747l-13.801,7.968   v-15.936l13.801-7.969V110.747z M79.13,91.741L65.329,99.71V83.772l13.801-7.967V91.741z M79.13,72.735l-13.801,7.968V64.768   L79.13,56.8V72.735z M81.75,54.206c-0.007-0.027-0.011-0.055-0.019-0.082c-0.029-0.1-0.067-0.197-0.121-0.291   c-0.055-0.094-0.12-0.176-0.191-0.25c-0.02-0.02-0.041-0.037-0.061-0.056c-0.061-0.057-0.125-0.106-0.194-0.149   c-0.015-0.009-0.025-0.022-0.04-0.031l-9.561-5.52l11.815-6.822l10.313,17.95l-11.904,6.872V54.498   c0-0.018-0.006-0.035-0.007-0.052C81.778,54.365,81.768,54.286,81.75,54.206z M91.172,87.094l-9.384-16.252v-1.945l13.229-7.637   l10.188,17.733L91.172,87.094z M112.049,91.741l-13.802,7.968V86.078l9.436-5.447c0.635-0.366,0.854-1.178,0.488-1.813   l-0.333-0.581l4.211-2.431V91.741z M112.049,72.735l-5.536,3.196l-6.875-11.967l12.411-7.165V72.735z M98.313,61.66l-0.066-0.114   V45.762l13.801-7.968l0.001,15.937L98.313,61.66z"/></g></svg>